<svg id="レイヤー_1" xmlns="http://www.w3.org/2000/svg" viewBox="0 0 512 322.9"><style>.st0{fill:#fff}</style><title>360</title><path class="st0" d="M322.3 279c-8.3 0-15-6.8-14.9-15.1 0-7.5 5.6-13.8 13-14.8 47.4-6 89.8-18.9 119.5-36.2 27.1-15.8 42.1-34.4 42.1-52.3 0-19.8-17.5-35.9-32.2-46-6.9-4.5-8.9-13.8-4.3-20.8 4.5-6.9 13.8-8.9 20.8-4.3.2.1.4.2.5.4 29.6 20.3 45.2 44.7 45.2 70.7 0 29.5-19.7 56.5-57 78.2-33.5 19.5-78.8 33.4-130.8 40-.7.1-1.3.1-1.9.2zm-70-21.5l-40-40c-5.8-6-15.3-6.1-21.2-.4s-6.1 15.3-.4 21.2l.4.4 11.7 11.7c-44.8-4.6-85.5-15.1-117-30.2-35.5-17-55.8-38.8-55.8-59.6 0-17.6 14.5-36 41-51.7 7.1-4.2 9.5-13.4 5.3-20.6-4.2-7.1-13.4-9.5-20.6-5.3C9.7 110.4 0 140.3 0 160.6c0 33.3 25.8 64 72.8 86.6 36.4 17.5 83.5 29.2 134.9 33.8l-16.5 16.5c-5.8 6-5.6 15.5.4 21.2 5.8 5.6 15 5.6 20.8 0l40-40c5.8-5.9 5.8-15.4-.1-21.2zM454.4 56c-15.5 0-28-12.5-28-28s12.5-28 28-28 28 12.5 28 28-12.6 28-28 28zm0-43.1c-8.3 0-15.1 6.8-15.1 15.1s6.8 15.1 15.1 15.1 15.1-6.8 15.1-15.1c-.1-8.3-6.8-15.1-15.1-15.1z"/><path class="st0" d="M135.5 113.5c.6 7.4 2.4 12.5 5.6 15.5 3.2 2.9 7.8 4.4 13.9 4.4 5.4 0 9.9-1.3 13.4-3.8 3.5-2.6 5.2-6.8 5.2-12.7 0-5.8-1.4-9.9-4.3-12.5-2.9-2.6-7.7-3.8-14.4-3.8H143V79.7h13.3c10.1 0 15.1-5 15.1-15.1 0-1.9-.3-3.7-.9-5.5-.5-1.7-1.5-3.3-2.7-4.6-1.4-1.4-3.1-2.4-4.9-3.1-2.5-.8-5.1-1.2-7.6-1.1-5.4 0-9.8 1.2-13.1 3.7-3.3 2.5-5.7 6.9-7.2 13.3l-22.8-3.1c1-4.7 2.5-9.3 4.5-13.6 1.9-4.1 4.7-7.9 8.2-10.9 3.7-3.2 8-5.6 12.7-7.1 5.8-1.8 11.8-2.7 17.9-2.6 5.9-.1 11.8.7 17.5 2.5 4.6 1.4 8.8 3.7 12.5 6.7 3.2 2.7 5.8 6.2 7.4 10.1 1.6 4 2.5 8.2 2.5 12.5.1 5.4-1.2 10.7-3.8 15.4-2.9 4.8-7 8.6-12 11.1 6.8 2.8 11.6 6.7 14.4 11.6 2.8 4.9 4.2 10.5 4.1 16.1.1 5.2-.7 10.4-2.4 15.3-1.5 4.5-4.1 8.6-7.6 11.9-3.8 3.5-8.3 6.1-13.2 7.7-6.2 2-12.7 3-19.2 2.8-8.5 0-15.6-1.2-21.2-3.7-5.1-2.1-9.8-5.3-13.5-9.4-3.3-3.8-5.8-8.2-7.3-13-1.4-4.6-2.3-9.4-2.6-14.2l24.4.1zm140.2-50.8c-.5-1.8-1.1-3.6-1.9-5.3-.6-1.5-1.6-2.9-2.7-4.1-1.3-1.2-2.8-2.1-4.4-2.6-2.3-.7-4.6-1-7-.9-7.4 0-12.8 3.1-16.4 9.4s-5.6 14.7-6 25.3c3.2-3.4 7.1-6.1 11.4-7.7 4.7-1.7 9.6-2.6 14.6-2.6 11.6 0 20.4 3.3 26.5 9.9 6.1 6.6 9.2 16.3 9.2 29 .1 5.7-1 11.4-3 16.7-3.7 9.9-11.7 17.7-21.7 21.2-5.7 2-11.7 3-17.7 2.9-8.4 0-15.3-1.6-20.8-4.9-5.3-3.1-9.8-7.4-13.1-12.6-3.3-5.3-5.6-11.2-6.8-17.4-1.3-6.4-2-12.9-2-19.4 0-13 1.2-24 3.7-32.9 2.4-8.9 5.8-16.1 9.9-21.5 3.8-5.1 8.9-9.1 14.7-11.6 5.6-2.3 11.7-3.5 17.8-3.5 11.7 0 20.5 2.4 26.4 7.3 6 4.9 9.7 12.4 11.3 22.6l-22 2.7zm-18.8 72.1c5.1.1 10-1.8 13.7-5.3 3.7-3.5 5.5-8.8 5.5-16 0-6.1-1.4-11.1-4.2-14.8s-7.6-5.6-14.3-5.6c-2.4 0-4.8.3-7.1 1-2.3.6-4.5 1.8-6.3 3.4-1.9 1.7-3.4 3.9-4.3 6.3-1.2 3.1-1.6 6.5-1.3 9.9.1 2.8.6 5.6 1.4 8.3.7 2.4 1.9 4.7 3.4 6.7 1.5 1.9 3.4 3.4 5.6 4.4 2.4 1.1 5.1 1.7 7.9 1.7zm99.4 19c-14 0-25-5-32.7-15-7.8-10-11.7-25.6-11.6-46.9 0-10.7 1-19.9 3.1-27.6 1.7-7 4.8-13.5 9-19.3 3.7-4.9 8.6-8.8 14.2-11.3 5.9-2.5 12.3-3.7 18.7-3.6 14 0 25 5 32.7 15s11.6 25.6 11.6 46.8c0 21.3-3.9 37-11.8 46.9-7.9 9.9-18.9 14.9-33.2 15zm.2-20.7c3.4.1 6.7-.9 9.4-2.8 2.7-2.1 4.9-4.9 6.2-8.2 1.7-4.1 2.9-8.5 3.4-12.9 1.4-11.5 1.4-23 0-34.5-.5-4.4-1.7-8.8-3.4-12.9-1.3-3.2-3.5-6-6.2-8.2-2.8-1.9-6.1-2.9-9.4-2.8-3.3-.1-6.6.9-9.4 2.8-2.7 2.1-4.8 5-6 8.2-1.7 4.1-2.8 8.5-3.3 12.9-1.4 11.5-1.4 23 0 34.5.5 4.4 1.6 8.8 3.3 12.9 1.2 3.2 3.3 6 6 8.2 2.7 1.9 6 2.9 9.4 2.8z"/></svg>