<svg xmlns="http://www.w3.org/2000/svg" width="20" height="20" viewBox="0 0 20 20"><defs><style>.cls-1{fill-rule:evenodd}</style></defs><path id="arw" class="cls-1" d="M686 120.626l-.019-5.119a.53.53 0 0 0-.141-.35.453.453 0 0 0-.352-.141L680.35 115a.459.459 0 0 0-.352.141.448.448 0 0 0-.141.351v.981a.48.48 0 0 0 .493.491l1.619.022a.267.267 0 0 1 .176.456l-2.982 2.965a.468.468 0 0 0 0 .7l.7.7a.473.473 0 0 0 .705 0l3.016-3a.276.276 0 0 1 .458.175l.022 1.613a.48.48 0 0 0 .492.491h.986a.453.453 0 0 0 .352-.141.425.425 0 0 0 .106-.319zm-20 8.748l.019 5.119a.53.53 0 0 0 .141.35.453.453 0 0 0 .352.141l5.138.016a.459.459 0 0 0 .352-.141.448.448 0 0 0 .141-.351v-.978a.48.48 0 0 0-.493-.491l-1.619-.022a.267.267 0 0 1-.176-.456l2.982-2.965a.468.468 0 0 0 0-.7l-.7-.7a.473.473 0 0 0-.705 0l-3.016 3a.276.276 0 0 1-.458-.175l-.022-1.613a.481.481 0 0 0-.493-.491h-.985a.453.453 0 0 0-.352.141.425.425 0 0 0-.106.316zm0-8.748l.019-5.119a.53.53 0 0 1 .141-.35.453.453 0 0 1 .352-.141l5.14-.019a.459.459 0 0 1 .352.141.448.448 0 0 1 .141.351v.981a.48.48 0 0 1-.493.491l-1.619.022a.267.267 0 0 0-.176.456l2.982 2.965a.468.468 0 0 1 0 .7l-.7.7a.473.473 0 0 1-.705 0l-3.016-3a.276.276 0 0 0-.458.175l-.022 1.613a.481.481 0 0 1-.493.491h-.985a.453.453 0 0 1-.352-.141.425.425 0 0 1-.108-.316zm20 8.748l-.019 5.119a.53.53 0 0 1-.141.35.453.453 0 0 1-.352.141l-5.14.019a.459.459 0 0 1-.352-.141.448.448 0 0 1-.141-.351v-.981a.48.48 0 0 1 .493-.491l1.619-.022a.267.267 0 0 0 .176-.456l-2.982-2.965a.468.468 0 0 1 0-.7l.7-.7a.473.473 0 0 1 .705 0l3.016 3a.276.276 0 0 0 .458-.175l.022-1.613a.48.48 0 0 1 .492-.491h.986a.453.453 0 0 1 .352.141.425.425 0 0 1 .108.316z" transform="translate(-666 -115)"/></svg>