<svg xmlns="http://www.w3.org/2000/svg" width="20" height="20" viewBox="0 0 20 20"><defs><style>.cls-1{fill-rule:evenodd}</style></defs><path id="arw" class="cls-1" d="M1379 237.373l.02 5.12a.535.535 0 0 0 .14.35.439.439 0 0 0 .35.14l5.14.019a.443.443 0 0 0 .35-.14.435.435 0 0 0 .14-.351v-.982a.478.478 0 0 0-.49-.49l-1.62-.022a.265.265 0 0 1-.17-.456l2.98-2.965a.469.469 0 0 0 0-.7l-.71-.7a.468.468 0 0 0-.7 0l-3.02 3a.269.269 0 0 1-.45-.175l-.03-1.613a.478.478 0 0 0-.49-.49h-.98a.465.465 0 0 0-.36.141.427.427 0 0 0-.1.314zm-6 17.279l-.02-5.143a.542.542 0 0 0-.14-.352.443.443 0 0 0-.35-.14l-5.11-.02a.48.48 0 0 0-.36.142.47.47 0 0 0-.14.352v.986a.48.48 0 0 0 .49.493l1.62.022a.266.266 0 0 1 .17.458l-2.97 2.978a.473.473 0 0 0 0 .705l.7.7a.465.465 0 0 0 .7 0l3.01-3.014a.269.269 0 0 1 .45.176l.02 1.62a.48.48 0 0 0 .49.493h.99a.454.454 0 0 0 .35-.141.432.432 0 0 0 .1-.315zm0-17.279l-.02 5.12a.535.535 0 0 1-.14.35.439.439 0 0 1-.35.14l-5.11.019a.478.478 0 0 1-.36-.14.47.47 0 0 1-.14-.351v-.982a.478.478 0 0 1 .49-.49l1.62-.022a.265.265 0 0 0 .17-.456l-2.97-2.965a.469.469 0 0 1 0-.7l.7-.7a.468.468 0 0 1 .7 0l3.01 3a.269.269 0 0 0 .45-.175l.02-1.613a.478.478 0 0 1 .49-.49h.99a.457.457 0 0 1 .35.141.427.427 0 0 1 .1.314zm6 17.279l.02-5.143a.542.542 0 0 1 .14-.352.443.443 0 0 1 .35-.14l5.14-.02a.444.444 0 0 1 .35.142.436.436 0 0 1 .14.352v.986a.48.48 0 0 1-.49.493l-1.62.022a.266.266 0 0 0-.17.458l2.98 2.978a.473.473 0 0 1 0 .705l-.71.7a.465.465 0 0 1-.7 0l-3.02-3.014a.269.269 0 0 0-.45.176l-.03 1.62a.48.48 0 0 1-.49.493h-.98a.461.461 0 0 1-.36-.141.432.432 0 0 1-.1-.315z" transform="translate(-1366.03 -236.031)"/></svg>